<?xml version="1.0" encoding="utf-8"?>
<!-- Generator: Adobe Illustrator 17.1.0, SVG Export Plug-In . SVG Version: 6.00 Build 0)  -->
<!DOCTYPE svg PUBLIC "-//W3C//DTD SVG 1.1//EN" "http://www.w3.org/Graphics/SVG/1.1/DTD/svg11.dtd">
<svg version="1.1" id="Layer_1" xmlns="http://www.w3.org/2000/svg" xmlns:xlink="http://www.w3.org/1999/xlink" x="0px" y="0px"
	 viewBox="12.5 102.5 587.1 587.1" enable-background="new 12.5 102.5 587.1 587.1" xml:space="preserve">
<circle fill="none" stroke="#FFFFFF" stroke-width="4" stroke-miterlimit="10" cx="306" cy="396" r="279.5"/>
<path fill="#FFFFFF" stroke="#FFFFFF" stroke-miterlimit="10" d="M217.7,441.6c18.7-21.6,73.1-16.4,73.1,15.2c0,18.1,0,36.3,0,54.4
	v5.8c0,7.6,3.5,14,11.7,14v3.5c-8.2,0-12.9-4.7-14.6-12.3c-6.4,11.1-22.8,14-36.3,14c-8.2,0-16.4-1.8-23.4-5.3
	c-19.9-9.9-21.6-39.8-2.3-51.5c6.4-3.5,15.2-5.3,25.1-5.3h36.3v-17.5c0-28.7-49.7-31.6-66.7-13.5L217.7,441.6z M250.4,477.3
	c-9.9,0-17.5,2.3-23.4,5.3c-16.4,9.9-15.2,36.3,2.3,45c6.4,3.5,14,5.3,21.6,5.3c14.6,0,35.7-3.5,35.7-21.6c0-11.1,0-22.8,0-33.9
	L250.4,477.3L250.4,477.3z"/>
<path fill="#FFFFFF" stroke="#FFFFFF" stroke-miterlimit="10" d="M392.6,535.2v-78.4c0-32.7-69.6-32.2-71.3-1.2v79.5h-3.5V428.7h3.5
	V444c15.2-24.6,74.9-21.1,74.9,12.3v78.4L392.6,535.2L392.6,535.2z"/>
<path fill="#FFFFFF" stroke="#FFFFFF" stroke-miterlimit="10" d="M180.9,284.3c13.5-21.6,60.2-21.1,70.2,3.5
	c11.1-28.1,73.7-25.1,73.7,8.8v78.4h-3.5V296c0-32.7-68.4-32.7-68.4,0v78.4h-3.5V296c0-32.7-66.7-32.2-68.4-1.2"/>
<path fill="#FFFFFF" stroke="#FFFFFF" stroke-miterlimit="10" d="M420,362.7c-10.5,12.3-28.7,14.6-43.3,12.3
	c-9.4-1.8-19.9-5.8-25.7-14c-2.9-4.1-4.1-8.8-4.1-14c0-16.4,0-35.7,0-52.6c0-14,11.1-21.6,23.4-25.1c5.3-1.2,10.5-1.8,15.8-1.8
	c8.2,0,16.4,1.8,23.4,5.3c19.9,9.9,21.6,38.6,2.3,50.3c-6.4,3.5-14.6,5.3-25.1,5.3h-36.3v18.7c0,4.1,1.2,8.2,3.5,11.7
	c5.3,7,13.5,10.5,21.6,12.3c13.5,2.3,31.6,0,41.5-10.5L420,362.7z M387.3,325.2c9.9,0,18.1-1.8,23.4-5.3
	c16.4-9.9,15.2-34.5-2.3-43.9c-6.4-3.5-14-4.7-21.6-4.7c-5.3,0-9.9,0.6-14.6,1.8c-10.5,2.9-21.1,9.9-21.1,22.2c0,9.9,0,19.9,0,29.8
	L387.3,325.2L387.3,325.2z"/>
<path fill="#FFFFFF" stroke="#FFFFFF" stroke-miterlimit="10" d="M203.7,535.8c-18.1,1.8-26.3-11.1-26.3-46.2V260.3h3.5v229.8
	c0,32.7,7,40.9,22.8,40.4V535.8L203.7,535.8z"/>
<path fill="#FFFFFF" stroke="#FFFFFF" stroke-miterlimit="10" d="M450.4,224.1V244h-3.5v-19.9H450.4z M450.4,267.9v106.4h-3.5V267.9
	H450.4z"/>
</svg>
